<mxfile host="app.diagrams.net" modified="2022-10-06T18:38:31.884Z" agent="5.0 (Windows NT 10.0; Win64; x64) AppleWebKit/537.36 (KHTML, like Gecko) Chrome/106.0.0.0 Safari/537.36" etag="L6hH5vLYcorhVMmyVZF6" version="20.4.0" type="github">
  <diagram id="xHOimHG9-8J5mxC2XHgx" name="Страница 1">
    <mxGraphModel dx="1347" dy="701" grid="1" gridSize="10" guides="1" tooltips="1" connect="1" arrows="1" fold="1" page="1" pageScale="1" pageWidth="827" pageHeight="1169" math="0" shadow="0">
      <root>
        <mxCell id="0" />
        <mxCell id="1" parent="0" />
        <mxCell id="pfRGDcLMg5ehwP8UyWYD-4" style="edgeStyle=orthogonalEdgeStyle;rounded=0;orthogonalLoop=1;jettySize=auto;html=1;" edge="1" parent="1" source="pfRGDcLMg5ehwP8UyWYD-2" target="pfRGDcLMg5ehwP8UyWYD-3">
          <mxGeometry relative="1" as="geometry" />
        </mxCell>
        <mxCell id="pfRGDcLMg5ehwP8UyWYD-2" value="Index.js" style="rounded=1;whiteSpace=wrap;html=1;" vertex="1" parent="1">
          <mxGeometry x="354" y="320" width="120" height="60" as="geometry" />
        </mxCell>
        <mxCell id="pfRGDcLMg5ehwP8UyWYD-9" style="edgeStyle=orthogonalEdgeStyle;rounded=0;orthogonalLoop=1;jettySize=auto;html=1;entryX=0.5;entryY=0;entryDx=0;entryDy=0;" edge="1" parent="1" source="pfRGDcLMg5ehwP8UyWYD-3" target="pfRGDcLMg5ehwP8UyWYD-6">
          <mxGeometry relative="1" as="geometry" />
        </mxCell>
        <mxCell id="pfRGDcLMg5ehwP8UyWYD-10" style="edgeStyle=orthogonalEdgeStyle;rounded=0;orthogonalLoop=1;jettySize=auto;html=1;" edge="1" parent="1" source="pfRGDcLMg5ehwP8UyWYD-3" target="pfRGDcLMg5ehwP8UyWYD-5">
          <mxGeometry relative="1" as="geometry" />
        </mxCell>
        <mxCell id="pfRGDcLMg5ehwP8UyWYD-12" style="edgeStyle=orthogonalEdgeStyle;rounded=0;orthogonalLoop=1;jettySize=auto;html=1;entryX=0.5;entryY=0;entryDx=0;entryDy=0;" edge="1" parent="1" source="pfRGDcLMg5ehwP8UyWYD-3" target="pfRGDcLMg5ehwP8UyWYD-7">
          <mxGeometry relative="1" as="geometry" />
        </mxCell>
        <mxCell id="pfRGDcLMg5ehwP8UyWYD-13" style="edgeStyle=orthogonalEdgeStyle;rounded=0;orthogonalLoop=1;jettySize=auto;html=1;" edge="1" parent="1" source="pfRGDcLMg5ehwP8UyWYD-3" target="pfRGDcLMg5ehwP8UyWYD-8">
          <mxGeometry relative="1" as="geometry" />
        </mxCell>
        <mxCell id="pfRGDcLMg5ehwP8UyWYD-3" value="App.js" style="rounded=1;whiteSpace=wrap;html=1;" vertex="1" parent="1">
          <mxGeometry x="354" y="400" width="120" height="60" as="geometry" />
        </mxCell>
        <mxCell id="pfRGDcLMg5ehwP8UyWYD-5" value="Header.js" style="rounded=1;whiteSpace=wrap;html=1;" vertex="1" parent="1">
          <mxGeometry x="40" y="480" width="120" height="60" as="geometry" />
        </mxCell>
        <mxCell id="pfRGDcLMg5ehwP8UyWYD-6" value="LeftSidebar.js" style="rounded=1;whiteSpace=wrap;html=1;" vertex="1" parent="1">
          <mxGeometry x="200" y="480" width="120" height="60" as="geometry" />
        </mxCell>
        <mxCell id="pfRGDcLMg5ehwP8UyWYD-20" style="edgeStyle=orthogonalEdgeStyle;rounded=0;orthogonalLoop=1;jettySize=auto;html=1;" edge="1" parent="1" source="pfRGDcLMg5ehwP8UyWYD-7" target="pfRGDcLMg5ehwP8UyWYD-17">
          <mxGeometry relative="1" as="geometry" />
        </mxCell>
        <mxCell id="pfRGDcLMg5ehwP8UyWYD-21" style="edgeStyle=orthogonalEdgeStyle;rounded=0;orthogonalLoop=1;jettySize=auto;html=1;" edge="1" parent="1" source="pfRGDcLMg5ehwP8UyWYD-7" target="pfRGDcLMg5ehwP8UyWYD-18">
          <mxGeometry relative="1" as="geometry" />
        </mxCell>
        <mxCell id="pfRGDcLMg5ehwP8UyWYD-22" style="edgeStyle=orthogonalEdgeStyle;rounded=0;orthogonalLoop=1;jettySize=auto;html=1;" edge="1" parent="1" source="pfRGDcLMg5ehwP8UyWYD-7" target="pfRGDcLMg5ehwP8UyWYD-19">
          <mxGeometry relative="1" as="geometry" />
        </mxCell>
        <mxCell id="pfRGDcLMg5ehwP8UyWYD-7" value="Profile.js" style="rounded=1;whiteSpace=wrap;html=1;" vertex="1" parent="1">
          <mxGeometry x="570" y="480" width="120" height="60" as="geometry" />
        </mxCell>
        <mxCell id="pfRGDcLMg5ehwP8UyWYD-25" style="edgeStyle=orthogonalEdgeStyle;rounded=0;orthogonalLoop=1;jettySize=auto;html=1;" edge="1" parent="1" source="pfRGDcLMg5ehwP8UyWYD-8" target="pfRGDcLMg5ehwP8UyWYD-14">
          <mxGeometry relative="1" as="geometry" />
        </mxCell>
        <mxCell id="pfRGDcLMg5ehwP8UyWYD-26" style="edgeStyle=orthogonalEdgeStyle;rounded=0;orthogonalLoop=1;jettySize=auto;html=1;" edge="1" parent="1" source="pfRGDcLMg5ehwP8UyWYD-8" target="pfRGDcLMg5ehwP8UyWYD-15">
          <mxGeometry relative="1" as="geometry" />
        </mxCell>
        <mxCell id="pfRGDcLMg5ehwP8UyWYD-27" style="edgeStyle=orthogonalEdgeStyle;rounded=0;orthogonalLoop=1;jettySize=auto;html=1;" edge="1" parent="1" source="pfRGDcLMg5ehwP8UyWYD-8" target="pfRGDcLMg5ehwP8UyWYD-16">
          <mxGeometry relative="1" as="geometry" />
        </mxCell>
        <mxCell id="pfRGDcLMg5ehwP8UyWYD-8" value="Dialogs.js" style="rounded=1;whiteSpace=wrap;html=1;" vertex="1" parent="1">
          <mxGeometry x="1040" y="480" width="120" height="60" as="geometry" />
        </mxCell>
        <mxCell id="pfRGDcLMg5ehwP8UyWYD-14" value="AddMessage.js" style="rounded=1;whiteSpace=wrap;html=1;" vertex="1" parent="1">
          <mxGeometry x="900" y="585" width="120" height="60" as="geometry" />
        </mxCell>
        <mxCell id="pfRGDcLMg5ehwP8UyWYD-15" value="DialogItem.js" style="rounded=1;whiteSpace=wrap;html=1;" vertex="1" parent="1">
          <mxGeometry x="1040" y="585" width="120" height="60" as="geometry" />
        </mxCell>
        <mxCell id="pfRGDcLMg5ehwP8UyWYD-16" value="Message.js" style="rounded=1;whiteSpace=wrap;html=1;" vertex="1" parent="1">
          <mxGeometry x="1180.5" y="585" width="120" height="60" as="geometry" />
        </mxCell>
        <mxCell id="pfRGDcLMg5ehwP8UyWYD-17" value="AddPost.js" style="rounded=1;whiteSpace=wrap;html=1;" vertex="1" parent="1">
          <mxGeometry x="430" y="585" width="120" height="60" as="geometry" />
        </mxCell>
        <mxCell id="pfRGDcLMg5ehwP8UyWYD-24" style="edgeStyle=orthogonalEdgeStyle;rounded=0;orthogonalLoop=1;jettySize=auto;html=1;" edge="1" parent="1" source="pfRGDcLMg5ehwP8UyWYD-18" target="pfRGDcLMg5ehwP8UyWYD-23">
          <mxGeometry relative="1" as="geometry" />
        </mxCell>
        <mxCell id="pfRGDcLMg5ehwP8UyWYD-18" value="MyPosts.js" style="rounded=1;whiteSpace=wrap;html=1;" vertex="1" parent="1">
          <mxGeometry x="570" y="585" width="120" height="60" as="geometry" />
        </mxCell>
        <mxCell id="pfRGDcLMg5ehwP8UyWYD-19" value="ProfileInfo.js" style="rounded=1;whiteSpace=wrap;html=1;" vertex="1" parent="1">
          <mxGeometry x="707" y="585" width="120" height="60" as="geometry" />
        </mxCell>
        <mxCell id="pfRGDcLMg5ehwP8UyWYD-23" value="Post.js" style="rounded=1;whiteSpace=wrap;html=1;" vertex="1" parent="1">
          <mxGeometry x="570" y="670" width="120" height="60" as="geometry" />
        </mxCell>
      </root>
    </mxGraphModel>
  </diagram>
</mxfile>
